<?xml version="1.0" standalone="no"?>
<!DOCTYPE svg PUBLIC "-//W3C//DTD SVG 20010904//EN"
 "http://www.w3.org/TR/2001/REC-SVG-20010904/DTD/svg10.dtd">
<svg version="1.0" xmlns="http://www.w3.org/2000/svg"
 width="1024.000000pt" height="1024.000000pt" viewBox="0 0 1024.000000 1024.000000"
 preserveAspectRatio="xMidYMid meet">
<metadata>
Created by potrace 1.11, written by Peter Selinger 2001-2013
</metadata>
<g transform="translate(0.000000,1024.000000) scale(0.100000,-0.100000)"
fill="#000000" stroke="none">
<path d="M4578 10047 c-76 -5 -138 -13 -138 -18 0 -5 -24 -9 -54 -9 -30 0 -57
-4 -60 -9 -3 -5 -46 -12 -96 -16 -49 -4 -87 -11 -84 -16 3 -5 -13 -9 -35 -9
-22 0 -42 -4 -45 -9 -3 -5 -37 -12 -76 -16 -38 -4 -70 -11 -70 -16 0 -5 -13
-9 -29 -9 -17 0 -32 -4 -36 -9 -3 -5 -30 -13 -60 -16 -30 -4 -55 -11 -55 -16
0 -5 -11 -9 -24 -9 -14 0 -27 -4 -30 -9 -4 -5 -29 -12 -56 -16 -28 -4 -50 -11
-50 -16 0 -5 -8 -9 -19 -9 -10 0 -32 -7 -47 -15 -16 -8 -39 -15 -51 -15 -13 0
-23 -4 -23 -9 0 -5 -20 -12 -45 -15 -25 -4 -45 -11 -45 -17 0 -5 -6 -9 -14 -9
-7 0 -27 -7 -42 -15 -16 -8 -39 -15 -52 -15 -13 0 -20 -4 -17 -10 3 -5 0 -10
-8 -10 -8 0 -28 -7 -43 -15 -16 -8 -37 -15 -46 -15 -10 0 -18 -4 -18 -10 0 -5
-9 -10 -20 -10 -11 0 -20 -4 -20 -9 0 -5 -15 -13 -32 -16 -18 -4 -35 -10 -38
-14 -10 -12 -69 -41 -84 -41 -9 0 -16 -3 -16 -8 0 -4 -20 -16 -45 -27 -25 -11
-45 -23 -45 -27 0 -4 -16 -10 -35 -14 -19 -3 -33 -9 -31 -13 3 -4 -15 -16 -40
-27 -24 -10 -44 -22 -44 -26 0 -5 -7 -8 -15 -8 -8 0 -15 -4 -15 -9 0 -5 -13
-12 -30 -16 -16 -4 -30 -10 -30 -14 0 -4 -17 -16 -37 -27 -21 -10 -46 -27 -57
-36 -11 -10 -29 -21 -40 -24 -11 -4 -31 -17 -45 -30 -14 -13 -31 -24 -38 -24
-7 0 -13 -4 -13 -10 0 -5 -11 -12 -25 -16 -14 -3 -22 -10 -19 -15 3 -5 -2 -9
-10 -9 -9 0 -16 -4 -16 -9 0 -5 -10 -13 -22 -17 -12 -3 -32 -17 -45 -30 -13
-13 -31 -24 -40 -24 -9 0 -13 -3 -10 -6 6 -6 -35 -44 -48 -44 -3 0 -17 -10
-29 -22 -13 -13 -37 -33 -52 -45 -16 -12 -39 -30 -51 -40 -12 -10 -32 -26 -45
-36 -33 -25 -139 -121 -220 -199 -39 -38 -74 -68 -78 -68 -5 0 -11 -9 -15 -19
-3 -11 -15 -23 -25 -26 -10 -3 -22 -15 -25 -25 -3 -10 -15 -22 -26 -25 -11 -4
-18 -9 -16 -11 4 -5 -25 -39 -123 -144 -25 -26 -54 -60 -65 -75 -11 -15 -32
-40 -47 -55 -16 -16 -28 -31 -28 -35 0 -3 -6 -12 -12 -20 -76 -89 -80 -93
-104 -130 -10 -16 -27 -39 -37 -50 -9 -11 -24 -28 -32 -37 -8 -10 -15 -25 -15
-33 0 -9 -7 -18 -15 -21 -8 -4 -15 -12 -15 -20 0 -8 -3 -14 -8 -14 -4 0 -16
-16 -26 -35 -11 -19 -22 -35 -26 -35 -5 0 -11 -11 -14 -25 -4 -14 -11 -25 -16
-25 -6 0 -10 -7 -10 -15 0 -8 -4 -15 -10 -15 -5 0 -12 -11 -16 -25 -3 -14 -10
-25 -15 -25 -5 0 -9 -5 -9 -11 0 -6 -7 -17 -15 -25 -8 -9 -15 -24 -15 -35 0
-10 -4 -19 -9 -19 -5 0 -11 -8 -15 -17 -5 -18 -26 -53 -36 -63 -11 -11 -40
-73 -40 -86 0 -8 -3 -14 -7 -14 -5 0 -17 -20 -28 -45 -11 -25 -23 -45 -27 -45
-5 0 -8 -6 -8 -14 0 -15 -30 -77 -41 -86 -4 -3 -10 -20 -14 -37 -3 -18 -11
-33 -16 -33 -5 0 -9 -7 -9 -15 0 -8 -4 -15 -10 -15 -5 0 -10 -9 -10 -21 0 -21
-28 -90 -41 -99 -3 -3 -9 -22 -13 -42 -4 -21 -11 -38 -16 -38 -6 0 -10 -12
-10 -26 0 -16 -4 -23 -12 -18 -8 5 -9 0 -6 -14 4 -12 2 -22 -3 -22 -5 0 -9
-11 -9 -25 0 -14 -3 -25 -8 -25 -7 0 -25 -58 -39 -122 -3 -16 -9 -28 -13 -28
-5 0 -11 -22 -15 -50 -4 -27 -11 -50 -16 -50 -5 0 -9 -11 -9 -25 0 -14 -4 -25
-8 -25 -7 0 -20 -52 -38 -157 -4 -18 -10 -33 -14 -33 -4 0 -11 -31 -15 -70 -4
-38 -11 -70 -16 -70 -5 0 -9 -18 -9 -40 0 -22 -4 -40 -9 -40 -5 0 -13 -40 -17
-90 -3 -49 -10 -90 -15 -90 -5 0 -9 -27 -9 -60 0 -33 -4 -60 -8 -60 -16 0 -32
-346 -32 -680 0 -334 16 -680 32 -680 4 0 8 -27 8 -60 0 -33 4 -60 9 -60 5 0
12 -40 15 -90 4 -49 12 -90 17 -90 5 0 9 -18 9 -40 0 -22 4 -40 9 -40 5 0 12
-32 16 -70 4 -39 11 -70 15 -70 4 0 10 -15 14 -32 18 -106 31 -158 38 -158 4
0 8 -11 8 -25 0 -14 4 -25 9 -25 5 0 12 -22 16 -50 4 -27 10 -50 15 -50 4 0
10 -12 13 -28 14 -64 32 -122 39 -122 5 0 8 -11 8 -25 0 -14 4 -25 9 -25 5 0
7 -10 3 -22 -3 -14 -2 -19 6 -14 8 5 12 -2 12 -18 0 -14 4 -26 10 -26 5 0 12
-17 16 -37 4 -21 10 -40 13 -43 9 -6 41 -75 41 -87 0 -14 24 -63 32 -63 3 0
10 -15 13 -33 4 -17 10 -34 14 -37 11 -9 41 -71 41 -86 0 -8 3 -14 8 -14 4 0
16 -20 27 -45 11 -25 23 -45 28 -45 4 0 7 -6 7 -14 0 -16 29 -73 47 -93 6 -7
17 -26 25 -43 7 -16 16 -30 20 -30 5 0 8 -9 8 -19 0 -11 7 -26 15 -35 8 -8 15
-19 15 -25 0 -6 4 -11 9 -11 5 0 12 -11 15 -25 4 -14 11 -25 16 -25 6 0 10 -7
10 -15 0 -8 4 -15 10 -15 5 0 12 -11 16 -25 3 -14 9 -25 14 -25 4 0 15 -16 26
-35 10 -19 22 -35 26 -35 5 0 8 -6 8 -14 0 -8 7 -16 15 -20 8 -3 15 -12 15
-21 0 -8 7 -23 15 -32 49 -56 65 -77 65 -82 0 -3 10 -18 23 -33 12 -14 33 -41
47 -58 14 -17 32 -40 40 -50 8 -10 26 -33 40 -50 14 -17 33 -41 43 -53 25 -31
137 -155 169 -188 15 -15 24 -29 22 -32 -3 -3 4 -8 15 -12 11 -3 23 -15 26
-25 3 -10 15 -22 25 -25 10 -3 22 -15 25 -26 4 -10 10 -19 15 -19 4 0 39 -30
78 -68 91 -87 212 -195 269 -239 15 -12 39 -30 51 -40 13 -10 34 -28 47 -40
13 -13 27 -23 30 -23 12 0 54 -37 49 -42 -3 -3 7 -8 21 -12 14 -4 25 -11 25
-16 0 -6 7 -10 16 -10 8 0 13 -4 10 -9 -3 -5 5 -12 19 -15 14 -4 25 -11 25
-16 0 -6 7 -10 16 -10 8 0 13 -4 10 -9 -3 -5 5 -12 19 -15 14 -4 25 -11 25
-16 0 -6 4 -10 9 -10 8 0 130 -77 141 -90 3 -3 22 -14 43 -24 20 -11 37 -23
37 -27 0 -4 13 -10 30 -14 16 -4 30 -11 30 -16 0 -5 7 -9 15 -9 8 0 15 -3 15
-7 0 -5 20 -17 45 -28 25 -11 45 -23 45 -26 0 -4 14 -10 30 -14 17 -4 30 -10
30 -13 0 -4 20 -16 45 -27 25 -11 45 -23 45 -27 0 -5 7 -8 16 -8 18 0 77 -31
82 -42 2 -5 10 -8 18 -8 20 0 94 -33 94 -42 0 -5 8 -8 18 -8 9 0 30 -7 46 -15
15 -8 35 -15 43 -15 8 0 11 -4 8 -10 -3 -6 4 -10 17 -10 13 0 36 -7 52 -15 15
-8 35 -15 42 -15 8 0 14 -4 14 -9 0 -5 20 -12 45 -15 25 -4 45 -11 45 -17 0
-5 10 -9 23 -9 12 0 35 -7 51 -15 15 -8 37 -15 47 -15 11 0 19 -4 19 -9 0 -5
22 -12 50 -16 27 -4 52 -11 56 -16 3 -5 16 -9 30 -9 13 0 24 -4 24 -9 0 -5 27
-12 60 -16 33 -4 60 -11 60 -16 0 -5 16 -9 36 -9 19 0 33 -4 30 -9 -3 -5 26
-12 64 -16 39 -4 73 -11 76 -16 3 -5 23 -9 45 -9 22 0 38 -4 35 -9 -3 -5 35
-12 84 -16 50 -4 93 -11 96 -16 3 -5 30 -9 60 -9 30 0 54 -4 54 -8 0 -16 351
-32 680 -32 329 0 680 16 680 32 0 4 24 8 54 8 30 0 57 4 60 9 3 5 46 12 96
16 49 4 87 11 84 16 -3 5 13 9 35 9 22 0 42 4 46 9 3 6 37 13 75 17 38 3 67
10 64 15 -3 5 11 9 30 9 20 0 36 4 36 9 0 5 27 12 60 16 33 4 60 11 60 16 0 5
11 9 24 9 14 0 27 4 30 9 4 5 29 12 56 16 28 4 50 11 50 16 0 5 8 9 19 9 10 0
32 7 47 15 16 8 39 15 52 15 12 0 22 4 22 9 0 6 20 13 45 17 25 3 45 10 45 15
0 5 6 9 14 9 7 0 27 7 42 15 16 8 39 15 52 15 13 0 20 4 17 10 -3 6 0 10 8 10
8 0 28 7 43 15 16 8 37 15 47 15 9 0 17 3 17 8 0 9 74 42 94 42 8 0 16 3 18 8
5 11 64 42 82 42 9 0 16 3 16 8 0 4 20 16 45 27 25 11 45 23 45 27 0 3 14 9
30 13 17 4 30 10 30 14 0 3 20 15 45 26 25 11 45 23 45 28 0 4 7 7 15 7 8 0
15 4 15 9 0 5 14 12 30 16 17 4 30 10 30 14 0 4 17 16 37 27 21 10 46 27 57
36 11 10 28 20 38 24 10 3 18 9 18 14 0 4 8 10 18 14 24 8 52 26 96 64 8 6 20
12 26 12 5 0 10 4 10 10 0 5 11 12 25 16 14 3 22 10 19 15 -3 5 2 9 10 9 9 0
16 4 16 10 0 5 11 12 25 16 14 4 24 9 21 12 -5 5 37 42 49 42 3 0 17 10 29 23
13 12 37 32 52 44 54 41 75 58 104 83 70 60 146 130 212 193 38 37 74 67 78
67 5 0 11 9 15 19 3 11 15 23 25 26 10 3 22 15 25 25 3 10 15 22 26 25 11 4
18 9 15 12 -2 3 7 17 22 32 32 33 144 157 169 188 10 12 29 36 43 53 14 17 32
40 40 50 8 10 26 33 40 50 14 17 35 44 47 58 13 15 23 30 23 33 0 5 16 26 65
82 8 9 15 24 15 32 0 9 7 18 15 21 8 4 15 12 15 20 0 8 3 14 8 14 4 0 16 16
26 35 11 19 22 35 26 35 5 0 11 11 14 25 4 14 11 25 16 25 6 0 10 7 10 15 0 8
4 15 10 15 5 0 12 11 16 25 3 14 10 25 15 25 5 0 9 9 9 21 0 11 4 17 10 14 5
-3 12 7 16 22 4 15 10 30 13 33 3 3 15 21 25 40 11 19 22 37 25 40 12 10 41
72 41 86 0 8 3 14 8 14 4 0 16 20 27 45 11 25 23 45 27 45 5 0 8 6 8 14 0 15
30 77 41 86 4 3 10 20 14 38 3 17 10 32 13 32 8 0 32 49 32 63 0 12 32 81 41
87 3 3 9 22 13 43 4 20 11 37 16 37 6 0 10 11 10 24 0 14 5 28 10 31 6 4 8 11
5 16 -4 5 -1 9 4 9 6 0 11 11 11 25 0 14 3 25 8 25 7 0 25 58 39 123 3 15 9
27 13 27 5 0 11 22 15 50 4 27 11 50 16 50 5 0 9 14 9 32 0 17 3 28 7 24 7 -7
28 75 40 156 3 21 9 36 13 33 4 -3 11 27 15 65 4 39 11 70 16 70 5 0 9 18 9
40 0 22 4 40 9 40 5 0 13 41 17 90 3 50 10 90 15 90 5 0 9 27 9 60 0 33 4 60
8 60 16 0 32 351 32 680 0 329 -16 680 -32 680 -4 0 -8 27 -8 60 0 33 -4 60
-9 60 -5 0 -12 41 -15 90 -4 50 -12 90 -17 90 -5 0 -9 18 -9 40 0 22 -4 40 -9
40 -5 0 -12 31 -16 70 -4 38 -11 68 -15 65 -4 -3 -10 12 -13 33 -13 86 -31
162 -39 162 -4 0 -8 11 -8 25 0 14 -4 25 -9 25 -5 0 -12 23 -16 50 -4 28 -10
50 -15 50 -4 0 -10 12 -13 28 -14 64 -32 122 -39 122 -5 0 -8 11 -8 25 0 14
-5 25 -11 25 -5 0 -8 4 -4 9 3 5 1 12 -5 16 -5 3 -10 17 -10 31 0 13 -4 24
-10 24 -5 0 -12 17 -16 38 -4 20 -10 39 -13 42 -9 6 -41 75 -41 87 0 14 -24
63 -32 63 -3 0 -10 15 -13 33 -4 17 -10 34 -14 37 -11 9 -41 71 -41 86 0 8 -3
14 -8 14 -4 0 -16 20 -27 45 -11 25 -23 45 -27 45 -5 0 -8 6 -8 14 0 16 -29
73 -47 93 -6 7 -17 26 -25 43 -7 16 -16 30 -20 30 -5 0 -8 9 -8 20 0 11 -5 20
-11 20 -5 0 -7 5 -4 10 3 6 1 10 -4 10 -6 0 -11 7 -11 15 0 8 -4 15 -9 15 -5
0 -12 11 -15 25 -4 14 -11 25 -16 25 -6 0 -10 7 -10 15 0 8 -4 15 -10 15 -5 0
-12 11 -16 25 -3 14 -9 25 -14 25 -4 0 -15 16 -26 35 -10 19 -22 35 -26 35 -5
0 -8 6 -8 14 0 8 -7 16 -15 20 -8 3 -15 12 -15 21 0 8 -7 23 -15 33 -49 55
-65 76 -65 81 0 3 -10 18 -23 33 -12 14 -33 41 -47 58 -14 17 -32 40 -40 50
-8 10 -26 33 -40 50 -14 17 -33 41 -43 53 -25 31 -137 155 -169 188 -15 15
-24 29 -22 32 3 3 -4 8 -15 12 -11 3 -23 15 -26 25 -3 10 -15 22 -25 25 -10 3
-22 15 -25 26 -4 10 -10 19 -15 19 -4 0 -39 30 -78 68 -91 87 -212 195 -269
239 -15 12 -39 30 -51 40 -13 10 -34 28 -47 41 -13 12 -27 22 -30 22 -12 0
-54 37 -49 42 3 3 -7 8 -21 12 -14 4 -25 11 -25 16 0 6 -7 10 -16 10 -8 0 -13
4 -10 9 3 5 -5 12 -19 15 -14 4 -25 11 -25 16 0 6 -7 10 -16 10 -8 0 -13 4
-10 9 3 5 -5 12 -19 15 -14 4 -25 11 -25 16 0 6 -4 10 -9 10 -8 0 -130 77
-141 90 -3 3 -22 14 -42 24 -21 11 -38 23 -38 27 0 4 -13 10 -30 14 -16 4 -30
11 -30 16 0 5 -7 9 -15 9 -8 0 -15 3 -15 8 0 4 -20 16 -45 27 -25 11 -45 23
-45 26 0 4 -13 10 -30 14 -16 4 -30 10 -30 13 0 4 -20 16 -45 27 -25 11 -45
23 -45 27 0 5 -7 8 -16 8 -15 0 -74 29 -84 41 -3 4 -20 10 -37 14 -18 3 -33
11 -33 16 0 5 -9 9 -20 9 -11 0 -20 5 -20 10 0 6 -8 10 -17 10 -10 0 -31 7
-47 15 -15 8 -35 15 -43 15 -8 0 -11 5 -8 10 3 6 -4 10 -17 10 -13 0 -36 7
-52 15 -15 8 -35 15 -42 15 -8 0 -14 4 -14 9 0 6 -20 13 -45 17 -25 3 -45 10
-45 15 0 5 -10 9 -22 9 -13 0 -36 7 -52 15 -15 8 -37 15 -47 15 -11 0 -19 4
-19 9 0 5 -22 12 -50 16 -27 4 -52 11 -56 16 -3 5 -16 9 -30 9 -13 0 -24 4
-24 9 0 5 -25 12 -55 16 -30 3 -57 11 -60 16 -4 5 -22 9 -41 9 -19 0 -33 4
-30 9 3 5 -26 12 -64 16 -39 4 -73 11 -76 16 -3 5 -23 9 -45 9 -22 0 -38 4
-35 9 3 5 -35 12 -84 16 -50 4 -93 11 -96 16 -3 5 -30 9 -60 9 -30 0 -54 4
-54 8 0 28 -899 42 -1222 19z m2307 -2258 c5 -5 26 -9 47 -9 21 0 38 -4 38 -9
0 -4 23 -11 52 -14 28 -4 56 -11 62 -17 5 -5 18 -10 28 -10 10 0 18 -4 18 -9
0 -5 18 -11 40 -15 22 -3 40 -11 40 -16 0 -6 9 -10 21 -10 11 0 18 -4 15 -9
-3 -5 10 -12 29 -15 19 -4 35 -11 35 -16 0 -6 7 -10 15 -10 8 0 15 -4 15 -10
0 -5 6 -10 14 -10 8 0 21 -6 28 -13 7 -7 26 -21 43 -31 45 -29 45 -29 233
-217 182 -182 202 -203 202 -215 0 -4 8 -14 18 -23 10 -9 21 -23 25 -31 12
-27 32 -55 45 -63 6 -4 12 -17 12 -27 0 -11 4 -20 9 -20 5 0 12 -13 16 -30 4
-16 11 -30 16 -30 5 0 9 -9 9 -20 0 -11 4 -20 10 -20 5 0 13 -18 16 -40 4 -22
10 -40 13 -40 10 0 30 -60 37 -113 4 -26 11 -47 15 -47 5 0 9 -17 9 -38 0 -21
5 -43 12 -50 16 -16 16 -388 0 -404 -7 -7 -12 -29 -12 -50 0 -21 -4 -38 -9
-38 -4 0 -11 -27 -15 -60 -4 -33 -11 -60 -16 -60 -6 0 -10 -9 -10 -19 0 -11
-4 -22 -9 -25 -5 -4 -12 -24 -16 -46 -4 -22 -11 -40 -16 -40 -5 0 -9 -7 -9
-15 0 -8 -4 -15 -9 -15 -5 0 -12 -13 -16 -29 -3 -15 -14 -37 -24 -47 -9 -11
-18 -22 -19 -26 -8 -26 -17 -43 -31 -58 -9 -9 -25 -29 -36 -44 -11 -15 -31
-42 -45 -59 -34 -42 -2604 -2612 -2659 -2659 -25 -21 -48 -38 -53 -38 -5 0
-20 -11 -34 -25 -14 -14 -29 -25 -35 -25 -5 0 -21 -11 -35 -25 -14 -14 -31
-25 -39 -25 -8 0 -15 -4 -15 -10 0 -5 -7 -10 -15 -10 -8 0 -15 -4 -15 -9 0 -5
-13 -12 -30 -16 -16 -4 -30 -10 -30 -15 0 -5 -13 -11 -30 -15 -16 -4 -30 -11
-30 -16 0 -5 -9 -9 -20 -9 -11 0 -20 -4 -20 -10 0 -5 -18 -13 -40 -16 -22 -4
-37 -10 -34 -15 3 -5 -6 -9 -20 -9 -14 0 -26 -4 -26 -10 0 -5 -22 -12 -50 -16
-27 -4 -47 -10 -44 -15 3 -5 -8 -9 -23 -9 -16 0 -34 -5 -39 -10 -6 -6 -40 -13
-77 -17 -36 -3 -64 -10 -61 -14 3 -5 -19 -9 -48 -9 -30 0 -59 -5 -64 -10 -7
-7 -86 -9 -230 -6 -229 5 -334 13 -334 26 0 4 -28 10 -62 14 -34 3 -67 11 -72
16 -6 6 -23 10 -39 10 -15 0 -26 4 -23 9 3 5 -17 11 -44 15 -28 4 -50 11 -50
16 0 6 -12 10 -26 10 -14 0 -23 4 -20 9 3 5 -12 11 -34 15 -22 3 -40 11 -40
16 0 6 -9 10 -20 10 -11 0 -20 4 -20 9 0 5 -14 12 -30 16 -17 4 -30 10 -30 13
0 4 -20 16 -45 27 -25 11 -45 22 -45 25 0 3 -16 14 -35 24 -19 11 -35 23 -35
28 0 4 -6 8 -12 8 -7 0 -29 14 -48 30 -19 16 -48 40 -64 52 -42 33 -347 339
-376 377 -14 18 -31 39 -37 46 -7 8 -13 18 -13 24 0 6 -3 11 -8 11 -4 0 -16
16 -26 35 -11 19 -23 35 -28 35 -4 0 -8 6 -8 14 0 8 -6 21 -13 28 -6 7 -21 32
-32 55 -11 24 -23 43 -27 43 -5 0 -8 9 -8 20 0 11 -4 20 -10 20 -5 0 -7 7 -4
15 4 8 1 15 -5 15 -6 0 -11 7 -11 15 0 8 -4 15 -9 15 -5 0 -11 15 -15 32 -8
40 -28 88 -38 88 -3 0 -9 23 -13 50 -4 28 -11 50 -16 50 -5 0 -9 14 -9 30 0
17 -4 30 -9 30 -5 0 -12 34 -16 75 -4 41 -11 75 -15 75 -14 0 -23 124 -22 315
0 199 8 315 22 315 4 0 11 31 14 70 4 38 11 72 17 75 5 4 9 19 9 36 0 16 4 29
9 29 4 0 11 15 14 34 3 18 15 53 26 77 12 23 21 46 21 51 0 15 35 88 42 88 3
0 9 14 13 30 4 17 11 30 16 30 5 0 9 7 9 15 0 15 27 64 41 75 3 3 9 14 13 25
3 11 17 33 31 49 14 16 25 33 25 38 0 5 11 19 25 32 14 13 25 27 25 31 0 4 16
23 35 44 19 20 46 50 60 66 53 62 127 135 135 135 5 0 11 9 15 19 3 11 15 23
26 26 11 4 18 9 15 12 -7 7 33 43 47 43 6 0 8 3 5 6 -7 6 161 174 173 174 4 0
10 9 14 19 3 11 15 23 26 26 11 4 18 9 15 12 -7 7 33 43 47 43 6 0 8 3 5 6 -7
6 161 174 173 174 4 0 10 9 14 19 3 11 15 23 26 26 11 4 18 9 15 12 -7 7 33
43 47 43 6 0 8 3 5 6 -7 7 162 174 175 174 6 0 7 3 4 6 -8 8 31 44 46 44 6 0
7 3 4 6 -8 8 31 44 46 44 6 0 8 3 5 6 -7 7 162 174 175 174 6 0 7 3 4 6 -8 8
31 44 46 44 6 0 7 3 4 6 -8 8 31 44 46 44 6 0 8 3 5 6 -7 7 162 174 175 174 6
0 7 3 4 6 -8 8 31 44 46 44 6 0 8 3 5 6 -7 6 211 224 224 224 5 0 7 4 4 9 -3
4 11 17 32 27 20 10 39 22 40 27 2 4 14 7 27 7 13 0 27 5 30 10 3 6 24 10 45
10 21 0 42 -4 45 -10 3 -5 17 -10 31 -10 13 0 24 -4 24 -10 0 -5 8 -10 19 -10
22 0 101 -87 101 -111 0 -10 5 -19 11 -21 8 -3 12 -31 12 -78 0 -47 -4 -75
-12 -78 -6 -2 -11 -10 -11 -18 0 -22 -30 -63 -83 -114 -62 -59 -70 -67 -84
-82 -7 -7 -18 -18 -24 -24 -6 -7 -47 -48 -91 -93 -43 -44 -83 -81 -88 -81 -5
0 -11 -9 -15 -19 -3 -11 -15 -23 -25 -26 -10 -3 -22 -15 -25 -25 -3 -10 -15
-22 -26 -25 -11 -4 -18 -9 -16 -12 6 -6 -161 -173 -173 -173 -5 0 -11 -9 -15
-19 -3 -11 -15 -23 -25 -26 -10 -3 -22 -15 -25 -25 -3 -10 -15 -22 -26 -25
-11 -4 -18 -9 -16 -12 6 -6 -161 -173 -173 -173 -5 0 -11 -9 -15 -19 -3 -11
-15 -23 -25 -26 -10 -3 -22 -15 -25 -25 -3 -10 -15 -22 -26 -25 -11 -4 -18 -9
-16 -12 6 -6 -162 -173 -174 -173 -4 0 -10 -9 -14 -19 -3 -11 -15 -23 -25 -26
-10 -3 -22 -15 -25 -25 -3 -10 -15 -22 -26 -25 -11 -4 -18 -9 -16 -12 6 -6
-162 -173 -174 -173 -4 0 -10 -9 -14 -19 -3 -11 -15 -23 -25 -26 -10 -3 -22
-15 -25 -25 -3 -10 -15 -22 -26 -25 -11 -4 -18 -9 -16 -12 3 -3 -32 -42 -79
-86 -46 -45 -90 -87 -97 -94 -6 -7 -17 -18 -24 -25 -7 -7 -18 -18 -25 -24 -7
-7 -24 -26 -38 -44 -14 -18 -30 -37 -35 -44 -42 -46 -85 -105 -85 -115 0 -6
-7 -14 -15 -17 -8 -4 -15 -15 -15 -25 0 -10 -3 -19 -7 -19 -5 0 -17 -20 -28
-45 -11 -25 -22 -45 -26 -45 -4 0 -10 -16 -13 -35 -4 -19 -11 -35 -16 -35 -6
0 -10 -10 -10 -23 0 -13 -3 -27 -7 -31 -7 -7 -10 -17 -20 -68 -3 -16 -9 -28
-13 -28 -4 0 -11 -33 -15 -72 -4 -40 -11 -78 -17 -85 -22 -27 7 -535 32 -553
4 -3 10 -22 14 -44 4 -21 11 -46 16 -55 18 -35 40 -90 40 -100 0 -6 5 -11 10
-11 6 0 10 -7 10 -15 0 -8 4 -15 9 -15 5 0 11 -14 15 -31 3 -18 14 -39 25 -48
10 -9 21 -26 25 -38 4 -13 12 -23 17 -23 5 0 9 -7 9 -15 0 -8 4 -15 9 -15 5 0
12 -9 16 -19 3 -11 77 -90 165 -178 172 -171 176 -175 207 -192 12 -6 28 -17
36 -25 7 -8 30 -23 50 -34 20 -10 34 -22 30 -26 -3 -3 2 -6 11 -6 17 0 75 -28
86 -41 3 -4 20 -10 38 -14 17 -3 32 -11 32 -16 0 -5 12 -9 26 -9 14 0 23 -4
20 -9 -3 -5 16 -12 44 -16 27 -4 52 -11 56 -16 3 -5 18 -9 34 -9 15 0 30 -5
32 -10 2 -6 60 -13 133 -16 72 -4 135 -11 142 -16 7 -6 19 -5 32 1 11 6 48 11
83 11 94 0 198 12 192 21 -3 5 11 9 30 9 20 0 36 4 36 9 0 5 23 12 50 16 28 4
50 11 50 16 0 5 6 9 14 9 7 0 27 7 42 15 16 8 37 15 47 15 9 0 17 5 17 10 0 6
7 10 15 10 8 0 15 4 15 9 0 5 14 12 30 16 17 4 30 11 30 16 0 5 7 9 15 9 8 0
15 4 15 9 0 5 9 13 21 16 19 6 50 29 85 62 7 7 17 13 22 13 6 0 599 589 1320
1310 846 846 1320 1327 1338 1357 15 27 30 50 34 53 9 7 24 43 22 53 -1 4 1 7
6 7 16 0 50 106 59 188 3 23 9 42 14 42 5 0 9 47 9 105 0 63 -4 105 -10 105
-5 0 -10 20 -10 44 0 25 -4 47 -9 51 -6 3 -13 26 -17 50 -3 25 -10 45 -15 45
-5 0 -9 9 -9 19 0 11 -5 23 -10 26 -6 4 -8 10 -6 14 3 4 -2 17 -12 27 -9 10
-22 30 -28 44 -7 14 -22 38 -35 53 -36 43 -319 327 -325 327 -3 0 -17 9 -31
20 -14 11 -22 20 -17 20 5 0 -11 10 -36 22 -25 12 -46 26 -48 30 -2 4 -19 10
-38 14 -19 3 -34 10 -34 15 0 5 -9 9 -20 9 -11 0 -20 4 -20 9 0 5 -29 13 -65
16 -36 4 -65 11 -65 16 0 12 -247 12 -254 0 -3 -5 -35 -12 -71 -16 -36 -3 -63
-11 -60 -16 4 -5 -5 -9 -19 -9 -14 0 -26 -4 -26 -9 0 -5 -16 -12 -35 -15 -19
-4 -35 -11 -35 -16 0 -6 -7 -10 -15 -10 -8 0 -15 -4 -15 -9 0 -5 -10 -13 -22
-17 -12 -3 -27 -12 -33 -18 -7 -6 -31 -27 -55 -46 -38 -31 -487 -477 -628
-625 -29 -30 -58 -55 -64 -55 -6 0 -8 -3 -5 -6 8 -8 -31 -44 -46 -44 -6 0 -8
-3 -5 -6 3 -3 -306 -318 -688 -701 -382 -382 -694 -699 -694 -703 0 -5 -6 -15
-12 -22 -19 -21 -48 -78 -48 -94 0 -8 -4 -14 -9 -14 -24 0 -54 -276 -33 -303
5 -7 13 -30 17 -52 12 -70 116 -191 180 -211 11 -4 22 -10 25 -14 10 -14 117
-33 185 -33 75 0 195 21 195 33 0 4 12 11 26 14 39 10 114 61 168 115 6 6 17
17 24 24 7 6 18 18 25 25 7 7 48 49 92 92 44 44 85 84 90 90 6 6 16 16 23 23
7 6 18 18 25 25 7 7 18 18 25 25 7 7 18 18 25 25 62 67 120 122 127 122 5 0
11 9 15 19 3 11 15 23 25 26 10 3 22 15 25 25 3 10 15 22 25 25 10 3 22 15 25
25 3 10 15 22 26 25 11 4 18 9 15 12 -6 6 112 123 124 123 5 0 11 9 15 19 3
11 15 23 25 26 10 3 22 15 25 25 3 10 15 22 25 25 10 3 22 15 25 25 3 10 15
22 26 25 11 4 18 9 15 12 -6 6 112 123 124 123 5 0 11 9 15 19 3 11 15 23 25
26 10 3 22 15 25 25 3 10 15 22 25 25 10 3 22 15 25 25 3 10 15 22 26 25 11 4
18 9 15 12 -4 4 27 36 126 130 7 7 18 18 25 25 43 46 88 68 143 68 33 0 41 3
30 10 -12 8 -10 10 8 10 13 0 21 -4 18 -9 -3 -5 19 -11 49 -13 38 -3 60 -11
72 -25 10 -10 25 -22 33 -25 9 -3 28 -31 44 -62 27 -53 28 -63 23 -139 -3 -45
-10 -83 -16 -85 -6 -2 -11 -8 -11 -13 0 -14 -1 -15 -285 -305 -143 -145 -384
-391 -535 -545 -151 -155 -288 -293 -304 -307 -16 -15 -34 -33 -40 -40 -6 -7
-17 -18 -24 -25 -7 -7 -18 -18 -25 -25 -7 -7 -18 -18 -25 -25 -7 -7 -18 -18
-25 -25 -7 -7 -18 -18 -25 -25 -7 -7 -18 -18 -25 -25 -18 -18 -89 -90 -108
-107 -9 -8 -19 -15 -23 -15 -4 0 -18 -11 -32 -25 -14 -14 -31 -25 -39 -25 -8
0 -15 -4 -15 -8 0 -5 -17 -17 -37 -28 -21 -10 -40 -21 -43 -25 -10 -10 -78
-39 -94 -39 -9 0 -16 -4 -16 -10 0 -5 -8 -10 -18 -10 -10 0 -23 -5 -28 -10 -6
-6 -34 -13 -62 -17 -29 -3 -52 -9 -52 -13 0 -13 -100 -23 -220 -23 -121 0
-220 10 -220 23 0 4 -22 10 -50 14 -27 4 -52 11 -55 16 -3 6 -15 10 -26 10
-10 0 -19 4 -19 9 0 5 -16 12 -35 15 -19 4 -35 11 -35 16 0 6 -7 10 -15 10 -8
0 -15 5 -15 10 0 6 -7 10 -15 10 -8 0 -25 11 -38 24 -13 13 -33 27 -45 30 -11
4 -24 16 -27 27 -4 10 -10 19 -15 19 -14 0 -110 101 -110 116 0 6 -6 14 -12
17 -7 2 -26 31 -43 63 -16 33 -33 61 -37 64 -3 3 -10 18 -13 33 -4 15 -11 27
-16 27 -5 0 -9 11 -9 24 0 14 -5 28 -10 31 -6 4 -8 15 -5 26 4 11 2 19 -4 19
-6 0 -11 18 -11 39 0 22 -4 42 -9 45 -24 15 -19 283 8 396 6 25 13 55 15 68 3
13 12 37 20 54 9 16 18 45 22 64 3 19 10 34 15 34 5 0 9 7 9 15 0 8 4 15 9 15
5 0 12 14 16 30 4 17 11 30 16 30 5 0 9 6 9 14 0 8 4 16 8 18 4 2 19 21 32 43
14 22 31 49 40 59 20 27 2169 2175 2201 2202 14 11 40 29 57 40 18 10 32 21
32 25 0 4 11 10 25 13 14 4 25 11 25 16 0 6 7 10 15 10 8 0 15 4 15 10 0 5 16
12 35 16 19 3 35 10 35 15 0 5 7 9 15 9 8 0 15 4 15 9 0 5 18 12 40 16 22 4
40 11 40 16 0 5 9 9 19 9 11 0 22 4 26 9 3 5 30 13 60 16 30 4 55 11 55 15 0
8 23 12 165 29 83 10 336 3 350 -10z"/>
</g>
</svg>
